<?xml version="1.0" standalone="no"?><!DOCTYPE svg PUBLIC "-//W3C//DTD SVG 1.1//EN" "http://www.w3.org/Graphics/SVG/1.1/DTD/svg11.dtd"><svg t="1545248436704" class="icon" style="" viewBox="0 0 1024 1024" version="1.1" xmlns="http://www.w3.org/2000/svg" p-id="33552" xmlns:xlink="http://www.w3.org/1999/xlink" width="64" height="64"><defs><style type="text/css"></style></defs><path d="M944.5 501.6C933 470.5 915.4 442.8 892 419c-34.6-34.9-78.6-58-125-72.8-29.5-9.4-60-15.6-89.7-19.4l-2.3-6.2v-0.1c-17.4-45.3-45.5-80.2-83.6-103.9-37.4-23.1-83.8-34.8-138-34.8-20.8 0-43.1 1.9-68.3 5.7-23.3 3.6-47.6 9.1-72.4 16.2-83.9 24.6-148 62.1-190.7 111.4-26.6 30.8-44.2 65.2-52.2 102.3-8.4 39.1-3.1 67.4-0.4 77.8 8.4 31.7 22.6 59.3 42.2 82.1 19.5 22.8 44.7 40.8 74.7 53.4l7.3 2.9c12 52.2 42.1 104.6 104.6 144.3 63.5 40.7 160.9 68 307.7 68 122.5-0.2 203.1-26.1 256.3-61.5 83.8-56 98.6-136 99.2-179 0.2-38.1-5.3-72.7-16.9-103.8z m-756.8 59.7c-0.5 5.1-0.8 9.8-0.7 14.1 0.1 7.8 0.4 15.8 1.2 23.8-21.6-10.5-39.7-24.3-54.2-41.1-16.7-19.4-28.9-43.1-36.1-70.4-7.4-28.5-6-92.8 46.3-153.3 38.9-45 98.4-79.4 176.7-102.4 23.5-6.8 46.7-12 68.7-15.4 23.7-3.6 44.5-5.4 63.8-5.4 48.7 0 89.9 10.2 122.5 30.4 30.1 18.7 53.1 46 68.3 81.3-8-0.6-16.2-1.2-24.4-1.6-11.3-0.5-22.8-0.8-34.3-0.8-5.4 0-9.1 0-12 0.3-3.6 0-7.4 0-11.5 0.3-107.8 3-195.9 26.5-261.7 69.9-39.3 26-69.4 58.2-89.4 95.6-13.4 24.8-21.6 51.5-23.2 74.7zM916 678.2c-14.4 32.7-38 60.2-70.2 81.7-56.1 37.3-136.8 56.3-240 56.5-128 0-226.1-21.3-291.8-63.4-34.9-22.2-60.8-50.4-77-83.9-5.2-10.8-9.4-22.2-12.7-34.2l-4.7-30.2c-1.1-6.6-1.6-11.8-1.8-16.4l-0.1-1.3c-0.5-6-0.9-11.7-0.9-16.8 0-1.9 0-4 0.2-6.1 1.4-12.7 5.8-34 19.3-59.7 8.2-15.7 18.7-30.6 31.1-44.4 14.3-15.9 31.2-30.3 50.3-43 61.7-40.8 145.3-62.9 248.7-65.9h1.2c2.8-0.2 6.2-0.2 9.6-0.2h1.4c4.6-0.2 8.4-0.2 10.4-0.2 63.6 0 120.5 7.9 169.3 23.5 46.6 14.9 84.6 36.9 113 65.4 20.4 20.8 35.8 45.1 45.8 72.2 10.2 27.4 15.2 58.8 15 93.4-0.5 17.4-3.4 44.1-16.1 73z" fill="#007fff" p-id="33553"></path><path d="M753.8 466c-107.2-91.4-226.7-28.9-227.2-28.6-9.3 4.8-12.8 16.1-8.3 25.4 4.8 9 16.1 12.8 25.3 8.3 0.2-0.2 97.9-51.2 185.7 23.6 8 6.8 19.8 5.8 26.6-2.3 6.7-7.8 6-19.6-2.1-26.4zM346.9 318c0-0.3 59.7-43.7 131-13.3 6.3 2.8 13.8-0.3 16.6-6.5 2.5-6.3-0.3-13.8-6.8-16.6-84.3-35.9-155.1 15.8-155.4 15.8-5.8 4-7 12.1-3 17.6 4.1 5.5 11.9 7 17.6 3z" fill="#007fff" p-id="33554"></path></svg>