<?xml version="1.0" standalone="no"?><!DOCTYPE svg PUBLIC "-//W3C//DTD SVG 1.1//EN" "http://www.w3.org/Graphics/SVG/1.1/DTD/svg11.dtd"><svg t="1545246139488" class="icon" style="" viewBox="0 0 3840 1024" version="1.1" xmlns="http://www.w3.org/2000/svg" p-id="1126" data-spm-anchor-id="a313x.7781069.0.i1" xmlns:xlink="http://www.w3.org/1999/xlink" width="240" height="64"><defs><style type="text/css"></style></defs><path d="M699.5456 182.1184H397.6576v184.5888h299.2256v73.8432H397.6576v235.5712h299.2256v74.7136H321.2928V107.4048h378.2528v74.7136zM1259.8144 750.8352h-71.9232v-70.3232c-52.6976 57.4336-113.3568 86.144-182.016 86.144-68.672 0-127.424-25.0496-176.256-75.1616-48.832-50.0992-73.2544-109.8752-73.2544-179.3152s24.5504-128.9088 73.6896-178.432c49.1264-49.4976 109.0688-74.2784 179.8016-74.2784 70.72 0 130.0864 28.4416 178.0224 85.2608v-72.9472h71.9232v479.0528zM1011.2 698.9696c49.1264 0 91.456-17.5744 126.9632-52.736 35.52-35.1616 53.2736-78.9632 53.2736-131.4176 0-52.4416-17.4592-96.384-52.3776-131.8528-34.9312-35.456-77.696-53.1712-128.3072-53.1712s-93.376 18.3296-128.3072 54.9376c-34.9312 36.6208-52.3904 79.8464-52.3904 129.6512 0 49.8176 17.7664 93.0432 53.2736 129.6512 35.5328 36.6208 78.144 54.9376 127.872 54.9376zM1627.4176 328.0256l-47.0528 48.3456c-34.9312-32.2304-66.9056-48.3456-95.8976-48.3456-18.3552 0-33.7408 5.7088-46.1696 17.152-12.4288 11.4304-18.6496 25.4848-18.6496 42.1888s6.9504 31.3472 20.864 43.9552c13.9008 12.608 38.6304 28.1216 74.1376 46.592 35.52 18.4448 62.8864 38.8224 82.1376 61.0816 19.2256 22.272 28.8512 49.5232 28.8512 81.7536 0 41.024-14.3616 75.584-43.0592 103.7184-28.7232 28.1216-64.0768 42.2016-106.112 42.2016-58.5984 0-107.4432-24.6144-146.5088-73.8432l46.1696-50.9824c31.9616 36.928 64.512 55.3728 97.664 55.3728 22.4896 0 41.728-7.3088 57.7152-21.9776 15.9872-14.6432 23.9744-31.7696 23.9744-51.4176 0-19.6224-7.2576-36.032-21.76-49.2288-14.5024-13.184-39.3728-28.5568-74.5856-46.144-35.2256-17.5744-61.8624-37.056-79.9104-58.4448-18.0608-21.3888-27.0848-49.5104-27.0848-84.3904 0-34.8544 12.8768-64.6016 38.6304-89.216s59.776-36.928 102.1056-36.928c42.3296 0 87.168 22.8608 134.5408 68.5568zM2123.7376 271.7824l-286.7968 648.6912h-76.3648l93.2352-210.944L1657.6 271.7824h76.352l158.9376 350.7072 153.6128-350.7072h77.2352z" fill="#007fff" p-id="1127" data-spm-anchor-id="a313x.7781069.0.i0"></path><path d="M2328.6528 102.4l-257.7536 640h107.4048l193.3056-512h42.9568l171.84 512h107.392L2457.5232 102.4zM3430.4 102.4h89.6v640h-89.6zM3088.1152 102.4H2982.4v435.2h105.7152c116.3136 0 210.6624-98.2528 210.6624-217.6 0-119.296-94.3488-217.6-210.6624-217.6zM2828.8 102.4h89.6v640h-89.6z" fill="#007fff" p-id="1128"></path></svg>