<?xml version="1.0" standalone="no"?><!DOCTYPE svg PUBLIC "-//W3C//DTD SVG 1.1//EN" "http://www.w3.org/Graphics/SVG/1.1/DTD/svg11.dtd"><svg t="1545247171276" class="icon" style="" viewBox="0 0 1038 1024" version="1.1" xmlns="http://www.w3.org/2000/svg" p-id="2249" xmlns:xlink="http://www.w3.org/1999/xlink" width="64.875" height="64"><defs><style type="text/css"></style></defs><path d="M766.979419 227.913266c62.86118 0 113.973228-51.012479 113.973228-113.973228 0-62.92756-51.112047-113.973228-113.973228-113.973228-62.89437 0-114.039607 51.045668-114.039607 113.973228C652.973001 176.900788 704.118238 227.913266 766.979419 227.913266z" p-id="2250" fill="#007fff"></path><path d="M762.399248 929.542281 768.008297 964.457784 800.16906 959.2802 836.876803 947.033222 838.204389 953.206495 879.956957 946.535377 873.684115 907.670308 872.987133 903.422034 872.25696 898.675915 872.688426 898.543156 835.117752 762.532007 827.683272 593.89544 840.228957 592.070009 840.228957 244.773604 728.213918 244.773604 677.433767 244.773604 681.78161 407.96707 722.969954 400.864486 722.969954 284.269277 722.969954 273.017989 734.221243 273.017989 798.31044 273.017989 809.561728 273.017989 809.561728 284.269277 809.561728 452.474379 809.163453 463.725667 809.163453 464.090753 799.870353 465.750235 685.532039 485.763589 683.640229 486.095485 683.640229 592.070009 693.663501 592.235958 659.079895 722.173403 631.532493 905.546171 630.702752 913.080219 624.131203 912.316857 585.066995 916.133666 580.984669 951.248306 613.410949 955.031926 652.010501 953.272875 651.711795 959.479338 693.530743 964.457784 698.144103 925.260817 698.641947 921.078923 699.405309 914.341425 700.002723 914.407805 727.251418 746.866496 755.263475 651.977312 765.120799 764.888471 805.512592 914.208667 798.974233 915.237546Z" p-id="2251" fill="#007fff"></path><path d="M0 994.096133l1037.707322 0 0 29.837487-1037.707322 0 0-29.837487Z" p-id="2252" fill="#007fff"></path><path d="M168.005964 893.56471c0.92931 1.692672 2.323275 2.987068 3.484912 4.447412 0.165948 0.365086 0.03319 0.564224 0.365086 0.92931 3.883188 4.945257-6.073704 22.436197-5.50948 42.416361 0.431465 16.229735 0.995689 36.209899 0.995689 36.209899l19.084044 0-0.730172-36.674554 8.629307-20.046543 9.22672 24.394386 14.271546 29.970246 16.229735-2.157327-13.541374-32.3599-8.596117-23.13318c31.961624 5.011636 72.784883-0.763362 103.219784-5.642239L307.203319 934.952193l-3.551292 34.915503 17.258613 0 2.323275-27.580592 10.886202-31.264642 3.849998 32.857745 4.945257 30.202573 19.084044 0c0 0-5.443101-14.238356-6.43879-31.231452-0.730172-12.645253-3.650861-26.983178-2.124137-36.11033 0.132759 0 0.398276-0.03319 0.564224-0.03319-0.165948-16.594821 4.248274-48.158169 7.301721-67.839627 14.039218-3.252585 26.983178-8.795255 33.886624-18.785337 12.612064-18.287492 13.143098-44.739636 11.218099-66.113765-0.92931-10.255599-17.026286-10.355168-16.063786 0 1.493534 16.362493 0.862931 33.621107-4.314653 49.286617-7.235342 21.905163-48.0586 23.332318-67.54092 24.825852-0.696982 0.066379-0.92931 0.597414-1.526723 0.763362-23.498266 1.792241-57.882734 2.489223-105.144783 0.298707l393.363628-352.772696 2.057758 11.616374 76.435744-13.309046 114.305124-20.013354 0-2.157327 0.398276 0L798.376819 284.269277l-64.089197 0 0 126.087447-52.140926 8.994393-84.401258 14.537063 5.808187 33.156452L203.51888 825.758273c-14.138787-17.490941-22.004732-56.322821-49.0211-56.322821-21.805594 0-40.823259 12.645253-51.145237 31.46378-5.177584 9.492237-38.997828 15.931028-42.349982 36.707743-3.385343 20.809905 68.503419 14.039218 89.844359 20.809905 4.878877 3.451723 8.396979 7.334911 11.218099 11.350857C162.098208 878.065148 163.857259 886.395748 168.005964 893.56471z" p-id="2253" fill="#007fff"></path></svg>