<?xml version="1.0" standalone="no"?><!DOCTYPE svg PUBLIC "-//W3C//DTD SVG 1.1//EN" "http://www.w3.org/Graphics/SVG/1.1/DTD/svg11.dtd"><svg t="1545248003392" class="icon" style="" viewBox="0 0 1024 1024" version="1.1" xmlns="http://www.w3.org/2000/svg" p-id="17899" xmlns:xlink="http://www.w3.org/1999/xlink" width="64" height="64"><defs><style type="text/css"></style></defs><path d="M628.228847 633.075238c8.357272 0 15.17956-6.808909 15.17956-15.189291 0-8.347542-6.822288-15.161316-15.17956-15.161316L521.987737 602.724631l0.00973-27.970286 114.509592-143.881068c5.453938-6.366171 4.703474-15.897184-1.662697-21.346257-6.3236-5.425963-15.854613-4.68523-21.304902 1.648101l-106.664386 134.065438L400.123113 411.173906c-5.425963-6.333331-14.95211-7.074064-21.295172-1.648101-6.34671 5.449073-7.098391 14.980085-1.667562 21.346257l114.594733 143.881068-0.004865 27.970286-106.25084 0c-8.357272 0-15.175911 6.813774-15.175911 15.161316 0 8.381599 6.818639 15.189291 15.175911 15.189291l106.24111 0-0.008514 60.720674-106.232596 0c-8.357272 0-15.175911 6.822288-15.175911 15.189291s6.818639 15.15645 15.175911 15.15645l106.222865 0-0.00973 63.632522c0 8.347542 6.761472 15.104149 15.099284 15.104149 8.342677 0 15.12361-6.756607 15.12361-15.104149l0.019461-63.632522 106.275167 0c8.357272 0 15.17956-6.789448 15.17956-15.15645 0-8.362138-6.822288-15.189291-15.17956-15.189291L521.963411 693.794695l0.014596-60.720674L628.228847 633.074022 628.228847 633.075238zM628.228847 633.075238" p-id="17900" fill="#007fff"></path><path d="M121.493041 14.461937l0 996.400689 781.013919 0L902.506959 14.461937 121.493041 14.461937 121.493041 14.461937zM875.339439 41.629458l0 127.22369L560.162872 312.111463l0-67.168338c18.073164-15.213617 29.590412-37.984174 29.590412-63.405072 0-45.696801-37.18749-82.894022-82.885508-82.894022-45.701666 0-82.885508 37.197221-82.885508 82.894022 0 25.338189 11.441837 48.044281 29.420129 63.257898l0 65.505641L148.660561 168.938289 148.660561 41.629458 875.339439 41.629458 875.339439 41.629458zM506.868992 237.251175c-30.721581 0-55.722852-25.011001-55.722852-55.713122 0-30.734961 25.001271-55.726501 55.722852-55.726501s55.717987 24.99154 55.717987 55.726501C562.585763 212.240174 537.585708 237.251175 506.868992 237.251175L506.868992 237.251175zM506.868992 264.413831c9.127197 0 17.907746-1.505793 26.131224-4.242492l0 64.286897-24.7872 11.265472-27.646747-12.823566 0-62.787186C488.838399 262.888577 497.674898 264.413831 506.868992 264.413831L506.868992 264.413831zM148.660561 983.69997l0-784.824621L508.085303 365.614548l367.254135-166.924078 0 785.0095L148.660561 983.69997 148.660561 983.69997zM148.660561 983.69997" p-id="17901" fill="#007fff"></path><path d="M506.868992 144.858982c-20.235765 0-36.688803 16.448173-36.688803 36.679072 0 20.2309 16.453038 36.680288 36.688803 36.680288 20.2309 0 36.688803-16.449389 36.688803-36.680288C543.557795 161.307154 527.099892 144.858982 506.868992 144.858982L506.868992 144.858982zM506.868992 191.05447c-5.254463 0-9.526147-4.280198-9.526147-9.516417 0-5.249598 4.271684-9.511551 9.526147-9.511551 5.259328 0 9.521282 4.261953 9.521282 9.511551C516.390274 186.774272 512.128321 191.05447 506.868992 191.05447L506.868992 191.05447zM506.868992 191.05447" p-id="17902" fill="#007fff"></path></svg>