<?xml version="1.0" standalone="no"?><!DOCTYPE svg PUBLIC "-//W3C//DTD SVG 1.1//EN" "http://www.w3.org/Graphics/SVG/1.1/DTD/svg11.dtd"><svg t="1545247680076" class="icon" style="" viewBox="0 0 1061 1024" version="1.1" xmlns="http://www.w3.org/2000/svg" p-id="11551" xmlns:xlink="http://www.w3.org/1999/xlink" width="66.3125" height="64"><defs><style type="text/css"></style></defs><path d="M477.493625 846.8051c28.910747 0 52.225865-25.180328 52.225865-55.956284V503.606557c0-7.460838-6.528233-13.989071-13.989071-13.989071s-13.989071 6.528233-13.989071 13.989071v287.242259c0 15.854281-11.191257 27.978142-24.247723 27.978142-10.258652 0-19.584699-7.460838-23.315119-17.71949-1.865209-5.595628-7.460838-10.258652-13.056466-10.258652-9.326047 0-15.854281 9.326047-13.056466 18.652095 6.528233 21.449909 26.112933 37.304189 49.428051 37.304189zM515.730419 244.342441c7.460838 0 13.989071-6.528233 13.989071-13.989071v-40.102004c0-7.460838-6.528233-13.989071-13.989071-13.989071s-13.989071 6.528233-13.989071 13.989071v40.102004c0 7.460838 6.528233 13.989071 13.989071 13.989071z" fill="#007fff" p-id="11552" data-spm-anchor-id="a313x.7781069.0.i15" class="selected"></path><path d="M204.240437 512C217.296903 351.591985 354.3898 225.690346 515.730419 225.690346s298.433515 125.901639 311.489982 287.242259c0.932605 11.191257-12.123862 19.584699-21.449909 13.056466-26.112933-16.786885-56.888889-26.112933-87.664845-26.112933-33.57377 0-65.282332 10.258652-93.260474 29.843352l-8.393443 5.595628-8.393442-5.595628c-27.045537-19.584699-59.686703-29.843352-93.260474-29.843352s-65.282332 10.258652-93.260473 29.843352l-8.393443 5.595628-8.393443-5.595628c-27.045537-19.584699-59.686703-29.843352-93.260473-29.843352-30.775956 0-61.551913 9.326047-87.664845 26.112933-8.393443 5.595628-20.517304-1.865209-19.5847-13.989071z m405.68306-15.854281c4.663024 2.797814 10.258652 2.797814 13.989071 0 28.910747-16.786885 60.619308-25.180328 94.193079-25.180327 13.056466 0 26.112933 0.932605 38.236794 3.730419 18.652095 3.730419 33.57377-13.989071 27.978142-31.708561-39.169399-110.979964-146.418944-190.251366-268.590164-190.251367-122.17122 0-228.48816 79.271403-268.590164 190.251367-6.528233 17.71949 9.326047 35.43898 27.978142 31.708561 12.123862-2.797814 25.180328-3.730419 38.236794-3.730419 33.57377 0 65.282332 8.393443 94.193079 25.180327 4.663024 2.797814 10.258652 2.797814 13.989071 0 28.910747-16.786885 60.619308-25.180328 94.193078-25.180327s65.282332 9.326047 94.193078 25.180327z" fill="#007fff" p-id="11553"></path></svg>