<?xml version="1.0" standalone="no"?><!DOCTYPE svg PUBLIC "-//W3C//DTD SVG 1.1//EN" "http://www.w3.org/Graphics/SVG/1.1/DTD/svg11.dtd"><svg t="1545247833972" class="icon" style="" viewBox="0 0 1024 1024" version="1.1" xmlns="http://www.w3.org/2000/svg" p-id="12507" xmlns:xlink="http://www.w3.org/1999/xlink" width="64" height="64"><defs><style type="text/css"></style></defs><path d="M461.223546 894.876154c-1.062192 0-2.099824-0.048095-3.162016-0.193405-11.732206-1.497097-20.736277-11.103896-21.532409-22.884197l-40.336684-605.249801L287.129486 630.065999c-3.186576 10.670014-14.097066 17.911952-24.260543 17.621333-11.128455-0.2415-20.711717-7.91732-23.390733-18.732643l-38.864146-155.385976-68.000743 68.000743c-4.634554 4.634554-10.911514 7.241938-17.477047 7.241938L65.698305 548.811394l0-49.437969 39.20286 0 91.634-91.634c6.300496-6.300496 15.425318-8.810666 24.067138-6.348592 8.593725 2.38942 15.231913 9.197476 17.380856 17.839297l27.6395 110.48637 122.460076-408.222425c3.451612-11.466146 14.677281-18.732643 26.456558-17.477047 11.876492 1.351787 21.097504 11.007705 21.894659 22.932292l41.061185 616.136755 108.555391-325.68971c3.186576-9.487072 11.732206-16.125259 21.725814-16.825201 10.041704-0.627287 19.408025 4.634554 23.850198 13.59053l76.763314 153.526629 27.326369-54.651714c4.200672-8.376785 12.745279-13.663184 22.1116-13.663184l197.750853 0 0 49.437969L773.08225 548.811394l-42.581818 85.212754c-8.400321 16.70445-35.82288 16.70445-44.223201 0l-72.176856-144.378272L484.638839 877.978299C481.259882 888.165312 471.724715 894.876154 461.223546 894.876154z" p-id="12508" fill="#007fff"></path></svg>