<?xml version="1.0" standalone="no"?><!DOCTYPE svg PUBLIC "-//W3C//DTD SVG 1.1//EN" "http://www.w3.org/Graphics/SVG/1.1/DTD/svg11.dtd"><svg t="1545248553942" class="icon" style="" viewBox="0 0 3272 1024" version="1.1" xmlns="http://www.w3.org/2000/svg" p-id="38210" xmlns:xlink="http://www.w3.org/1999/xlink" width="204.5" height="64"><defs><style type="text/css"></style></defs><path d="M701.479107 232.446109l477.621287 0 0 98.202985-477.621287 0 0-98.202985Z" p-id="38211" fill="#007fff"></path><path d="M701.479107 406.921272l477.621287 0 0 98.254106-477.621287 0 0-98.254106Z" p-id="38212" fill="#007fff"></path><path d="M705.415406 584.719285l302.737157 0 0 98.867555-302.737157 0 0-98.867555Z" p-id="38213" fill="#007fff"></path><path d="M459.882382 570.661075c96.924966-0.153362 161.49049-129.028805 161.49049-198.39968 0-69.421996-0.255604-192.776397-161.49049-192.776397-161.183765 0-161.49049 123.405521-161.49049 192.776397S363.059658 570.814438 459.882382 570.661075L459.882382 570.661075 459.882382 570.661075 459.882382 570.661075z" p-id="38214" fill="#007fff"></path><path d="M459.882382 570.661075" p-id="38215" fill="#007fff"></path><path d="M647.597823 623.980031c-40.538765-20.652788-78.623733-37.829364-78.623733-37.829364l-77.652439 142.72917-11.502172-33.995307 21.266237-42.89032-42.532475-42.941441-42.532475 42.941441 21.317358 42.89032-13.802606 34.813239-75.454246-143.547102c0 0-119.520343 53.727922-161.081524 85.882882-41.458939 32.359443-59.760172 130.357945-59.760172 130.357945l520.409365 0L647.648944 623.980031z" p-id="38216" fill="#007fff"></path><path d="M1454.436823 613.346912c-46.826619-46.724377-105.002047-70.802257-171.919125-70.802257-67.01932 0-125.194748 24.077879-171.919125 70.802257-46.775498 46.724377-70.802257 102.446009-70.802257 169.363087s24.026759 123.814488 70.802257 170.538865c46.724377 46.826619 104.899805 70.751136 171.919125 70.751136 66.968199 0 125.092507-23.924517 171.919125-70.751136 46.724377-46.724377 70.700015-103.570665 70.700015-170.538865S1501.1612 660.07129 1454.436823 613.346912L1454.436823 613.346912 1454.436823 613.346912zM1268.61285 893.642055c-13.904847 11.39993-32.81953 11.39993-46.724377 0l-102.394888-101.065748c-31.592631-26.633917 15.182867-74.636314 45.5486-44.270581l79.646148 78.317009 155.407119-151.675303c11.451051-15.233987 32.972892-12.626828 45.5486 0 13.955968 11.451051 13.955968 32.87065 0 44.168339L1268.61285 893.642055 1268.61285 893.642055z" p-id="38217" fill="#007fff"></path><path d="M1088.207678 976.457691c-17.329939-17.381059-30.876941-36.397983-42.634716-56.232839L144.876242 920.224851c-25.45814 0-46.110928-19.834856-46.110928-44.526184L98.765314 146.716589c0-24.589087 20.652788-44.526184 46.110928-44.526184l1093.575358 0c25.407019 0 46.110928 19.937097 46.110928 44.526184l0 365.666816c35.222206 0.204483 68.195098 6.645699 98.765314 18.556837L1383.327842 55.568269c0-30.672458-24.026759-55.568269-53.779042-55.568269L53.727922 0C24.077879 0 0 24.895811 0 55.568269l0 911.38096C0 997.621686 24.077879 1022.415256 53.727922 1022.415256l1097.307174 0C1128.695322 1010.095153 1107.326843 995.576856 1088.207678 976.457691z" p-id="38218" fill="#007fff"></path><path d="M1340.079677 0l0 517.086516c51.734212 10.479756 97.742899 35.171085 136.594678 74.022865 52.96111 52.96111 80.106235 115.737407 80.106235 191.498378 0 75.658729-27.145125 139.917528-80.106235 192.827517-20.448305 20.448305-43.401528 35.835655-67.581648 48.513604L3271.72882 1023.948879 3271.72882 0 1340.079677 0zM2488.712096 263.169687c19.170286 36.755828 34.353153 76.681144 45.5486 119.827068l-69.473117 0c-8.02596-38.340572-22.390894-78.265888-43.145924-119.827068L2488.712096 263.169687zM1882.419849 260.818132c19.170286 41.56118 33.53522 81.486496 43.145924 119.827068l-71.875793 0c-8.02596-35.119964-21.572962-75.096401-40.743248-119.827068L1882.419849 260.818132zM1779.411512 476.445509 1779.411512 426.142679l134.192002 0 0 263.578653c12.780191-6.390095 34.353153-18.352354 64.718886-35.937896-22.390894 14.364934-19.170286 12.780191 9.610703-4.805352l0 59.913534c-41.56118 28.780989-91.046079 53.523439-148.556937 74.278468l0-306.724577L1779.411512 476.445509zM2325.739104 807.145724c-99.072038-86.291848-157.349708-181.325346-174.93525-285.151615-19.170286 105.462134-78.265888 200.495632-177.337926 285.151615l0-57.510858c94.266687-122.996555 139.764166-272.371424 136.594678-448.124607l0-38.340572 81.486496 0 0 38.340572c-3.220608 174.117318 41.56118 323.492187 134.192002 448.124607L2325.739104 807.145724zM2392.860666 476.445509 2392.860666 426.142679l122.229744 0 0 261.175977c17.585542-6.390095 38.340572-17.585542 62.31621-33.53522l0 55.108182c-30.365733 27.145125-75.147521 51.887574-134.192002 74.278468l0-306.724577L2392.860666 476.445509zM2953.553193 783.170086l-407.381359 0L2546.171834 737.672607l59.913534 0L2606.085368 423.740003l69.473117 0 0 313.932604 67.121562 0L2742.680046 337.499276 2574.952823 337.499276 2574.952823 287.145325l369.040787 0 0 50.302831-124.63242 0 0 148.556937 107.813689 0 0 50.302831-107.813689 0 0 201.313564 134.192002 0L2953.553193 783.170086z" p-id="38219" fill="#007fff"></path><path d="M1298.569617 283.975837c0 0-36.960312 209.441765-114.459388 258.619939 0 0 49.58714-39.465229 125.859318-28.934352L1298.569617 283.975837z" p-id="38220" fill="#007fff"></path></svg>