<?xml version="1.0" standalone="no"?><!DOCTYPE svg PUBLIC "-//W3C//DTD SVG 1.1//EN" "http://www.w3.org/Graphics/SVG/1.1/DTD/svg11.dtd"><svg t="1545247301631" class="icon" style="" viewBox="0 0 1024 1024" version="1.1" xmlns="http://www.w3.org/2000/svg" p-id="7454" xmlns:xlink="http://www.w3.org/1999/xlink" width="64" height="64"><defs><style type="text/css"></style></defs><path d="M167.1 99.1v825h684.6v-825H167.1z m653.5 790.8H198.2V133.3h622.4v756.6zM704 496.7c-2.2-3.3-2.1-2.9-7.9-9.2-2.8-3.1-5.8-5.7-9.2-8-83.6-54.1-171.5 4.6-171.5 83.8 0 17.4 4.2 33.8 11.7 48.2l-76 151.6 69.8-7.6 35.7 60.4 62.1-124 71 123.7 32.2-62.3L792 757l-81.1-141.5c18.8-32.6 20.6-76.2-6.9-118.8zM554.9 766.4l-21.3-36.1-41.7 4.5 50.7-101.2c15.8 17.4 37.4 29.5 61.8 33.2l0.3 0.5-49.8 99.1z m7.9-145.9c-15.3-15.3-23.7-35.7-23.7-57.3 0-21.6 8.4-42 23.7-57.3 15.3-15.3 35.7-23.7 57.3-23.7s42 8.4 57.3 23.7 23.7 35.7 23.7 57.3c0 21.6-8.4 42-23.7 57.3-15.3 15.3-35.7 23.7-57.3 23.7s-42-8.3-57.3-23.7z m187.1 110.6l-41.9-2.2-19.3 37.3-56.7-98.9c24.8-2.8 47-14.2 63.4-31.2l54.5 95z m30.7-573.2H238.2V174h542.4v-16.1z m-73.9 129.8H279.2v32.5h427.6v-32.5zM279.2 430h244.9v-32.5H279.2V430z m0 109.8h183.7v-32.5H279.2v32.5z m340.9-45.4v16.3c29 0 52.6 23.6 52.6 52.6s-23.6 52.6-52.6 52.6v16.3c38 0 68.8-30.9 68.8-68.9 0.1-38-30.8-68.9-68.8-68.9z" fill="#007fff" p-id="7455"></path></svg>