<?xml version="1.0" standalone="no"?><!DOCTYPE svg PUBLIC "-//W3C//DTD SVG 1.1//EN" "http://www.w3.org/Graphics/SVG/1.1/DTD/svg11.dtd"><svg t="1545248983701" class="icon" style="" viewBox="0 0 1024 1024" version="1.1" xmlns="http://www.w3.org/2000/svg" p-id="40509" xmlns:xlink="http://www.w3.org/1999/xlink" width="64" height="64"><defs><style type="text/css"></style></defs><path d="M175.4 832.8l19-48.7c13.8-35.4 25.1-74.1 26.1-88.9-71.5-58.7-110.8-135.8-110.8-217.8 0-173.5 178.9-314.6 398.8-314.6s398.8 141.1 398.8 314.6S728.4 792 508.5 792c-50.5 0-99.6-7.3-146.1-21.7-16.6 2.1-83.1 24.2-137.9 44.5l-49.1 18z m183.9-63.5z m149.2-559.5c-194 0-351.8 120-351.8 267.6 0 69.4 35 135.3 98.7 185.6 8.3 6.5 22.6 17.8-0.3 90.7 100-35 111.7-31.3 118.4-29.2 42.8 13.6 88.2 20.5 135 20.5 194 0 351.8-120 351.8-267.6S702.5 209.8 508.5 209.8z" fill="#007fff" p-id="40510"></path><path d="M796 381.9l-107 26.5c-2.5 0.6-4.9 1.6-7.1 2.8L428 554.3c-10 5.6-22.5 4.7-31.5-2.5l-106.8-84.9c-5.2-4.1-11.7-6.3-18.4-6.1l-25.1 0.7 138.6 153.7c9.2 10.2 24.5 12.3 36.2 4.9l375-238.2z" fill="#007fff" p-id="40511"></path></svg>